<svg width="197" height="44" viewBox="0 0 197 44" fill="none" xmlns="http://www.w3.org/2000/svg">
<path d="M6.35085 1.27273H11.081L17.7287 28.4389H18.1122L33.7088 1.27273H38.4389L33.0057 34H29.2983L33.4531 9.13494H33.1335L18.7514 34H15.1719L9.09943 9.13494H8.77983L4.625 34H0.917614L6.35085 1.27273ZM40.4404 34L44.5313 9.45454H48.3026L44.2117 34H40.4404ZM47.5676 5.29971C46.8325 5.29971 46.1986 5.04936 45.6659 4.54865C45.1439 4.04794 44.8829 3.44602 44.8829 2.7429C44.8829 2.03977 45.1439 1.43785 45.6659 0.937144C46.1986 0.436433 46.8325 0.186078 47.5676 0.186078C48.3026 0.186078 48.9312 0.436433 49.4532 0.937144C49.9859 1.43785 50.2522 2.03977 50.2522 2.7429C50.2522 3.44602 49.9859 4.04794 49.4532 4.54865C48.9312 5.04936 48.3026 5.29971 47.5676 5.29971ZM52.046 43.2045C51.4068 43.2045 50.8422 43.1513 50.3521 43.0447C49.8727 42.9489 49.5424 42.853 49.3613 42.7571L50.8954 39.4332C51.769 39.6676 52.5467 39.7369 53.2285 39.641C53.921 39.5558 54.5762 39.2202 55.1941 38.6342C55.8226 38.0589 56.4778 37.1534 57.1596 35.9176L58.2143 34L53.2924 9.45454H57.2235L60.7392 29.0781H60.9949L71.0304 9.45454H75.2811L60.2278 37.5476C59.5247 38.858 58.7523 39.9286 57.9107 40.7596C57.0691 41.5906 56.1582 42.2031 55.1781 42.5973C54.198 43.0021 53.1539 43.2045 52.046 43.2045ZM82.58 34.5753C81.0246 34.5753 79.661 34.2823 78.4891 33.6964C77.3172 33.0998 76.449 32.2422 75.8843 31.1236C75.3197 29.9943 75.1652 28.6307 75.4209 27.0327C75.6659 25.6264 76.14 24.4865 76.8431 23.6129C77.5463 22.7287 78.3985 22.0362 79.3999 21.5355C80.412 21.0241 81.4987 20.646 82.6599 20.4009C83.8318 20.1452 84.9983 19.9482 86.1595 19.8097C87.6723 19.6179 88.9028 19.4687 89.8509 19.3622C90.7991 19.2557 91.5129 19.0799 91.9923 18.8349C92.4717 18.5898 92.7646 18.169 92.8712 17.5724V17.4446C93.1269 15.8786 92.9191 14.6587 92.248 13.7852C91.5768 12.9009 90.3783 12.4588 88.6524 12.4588C86.8627 12.4588 85.3659 12.853 84.162 13.6413C82.9582 14.4297 82.0686 15.2713 81.4933 16.1662L78.1695 14.8878C79.0431 13.3963 80.0871 12.2351 81.3016 11.4041C82.5161 10.5625 83.7892 9.97656 85.1208 9.64631C86.4525 9.3054 87.7362 9.13494 88.972 9.13494C89.7604 9.13494 90.6499 9.23082 91.6407 9.42258C92.6315 9.60369 93.5583 9.98189 94.4213 10.5572C95.2948 11.1325 95.95 12.0007 96.3868 13.1619C96.8343 14.3232 96.8982 15.8786 96.5786 17.8281L93.8939 34H90.1226L90.6979 30.6761H90.5061C90.1652 31.2088 89.6432 31.7788 88.9401 32.386C88.2476 32.9933 87.3687 33.5099 86.3034 33.9361C85.2487 34.3622 84.0075 34.5753 82.58 34.5753ZM83.6666 31.1875C85.1581 31.1875 86.4632 30.8945 87.5818 30.3086C88.711 29.7227 89.6166 28.9663 90.2984 28.0394C90.9909 27.1126 91.4223 26.1378 91.5928 25.1151L92.1681 21.6634C91.9763 21.8551 91.5981 22.0309 91.0335 22.1907C90.4688 22.3398 89.8296 22.473 89.1159 22.5902C88.4127 22.6967 87.7256 22.7926 87.0544 22.8778C86.3939 22.9524 85.8612 23.0163 85.4564 23.0696C84.455 23.1974 83.5015 23.4052 82.596 23.6928C81.7011 23.9698 80.9447 24.3906 80.3268 24.9553C79.7195 25.5092 79.3414 26.2656 79.1922 27.2244C78.9685 28.5348 79.2828 29.5256 80.135 30.1967C80.9873 30.8572 82.1645 31.1875 83.6666 31.1875ZM101.289 34L106.722 1.27273H117.78C120.337 1.27273 122.356 1.73082 123.837 2.64702C125.328 3.56321 126.335 4.80433 126.857 6.37038C127.39 7.93643 127.496 9.68892 127.176 11.6278C126.857 13.5455 126.17 15.2926 125.115 16.8693C124.071 18.446 122.654 19.7031 120.864 20.6406C119.085 21.5781 116.928 22.0469 114.392 22.0469H106.466L107.042 18.5312H114.84C116.587 18.5312 118.047 18.2276 119.218 17.6204C120.39 17.0131 121.306 16.1875 121.967 15.1435C122.627 14.0994 123.064 12.9276 123.277 11.6278C123.49 10.3068 123.437 9.13494 123.118 8.11221C122.809 7.07883 122.164 6.26918 121.184 5.68324C120.214 5.08665 118.846 4.78835 117.077 4.78835H110.11L105.252 34H101.289ZM139.166 34.5114C136.907 34.5114 135.016 33.9734 133.493 32.8974C131.969 31.8214 130.893 30.3139 130.265 28.375C129.647 26.4361 129.546 24.1776 129.961 21.5994C130.366 19.0852 131.17 16.896 132.374 15.0316C133.589 13.1566 135.096 11.7077 136.896 10.685C138.707 9.65163 140.7 9.13494 142.873 9.13494C145.131 9.13494 147.017 9.67827 148.53 10.7649C150.053 11.8409 151.129 13.3537 151.758 15.3033C152.386 17.2422 152.493 19.5114 152.078 22.1108C151.673 24.6037 150.858 26.7823 149.633 28.6467C148.418 30.5004 146.911 31.9439 145.11 32.9773C143.32 34 141.339 34.5114 139.166 34.5114ZM139.229 31.1236C140.955 31.1236 142.452 30.6815 143.72 29.7972C144.998 28.913 146.032 27.7464 146.82 26.2976C147.619 24.8487 148.157 23.2827 148.434 21.5994C148.69 20.0014 148.679 18.5153 148.402 17.141C148.125 15.756 147.534 14.6428 146.628 13.8011C145.723 12.9489 144.45 12.5227 142.809 12.5227C141.083 12.5227 139.576 12.9702 138.287 13.8651C137.008 14.7599 135.975 15.9371 135.187 17.3967C134.398 18.8562 133.871 20.4276 133.604 22.1108C133.349 23.7088 133.354 25.195 133.62 26.5692C133.897 27.9329 134.489 29.0355 135.394 29.8771C136.31 30.7081 137.589 31.1236 139.229 31.1236ZM155.885 34L159.976 9.45454H163.619L162.98 13.1619H163.236C163.875 11.9474 164.85 10.962 166.16 10.2056C167.47 9.44922 168.861 9.07102 170.331 9.07102C170.618 9.07102 170.965 9.07635 171.369 9.087C171.774 9.087 172.089 9.10298 172.312 9.13494L171.673 12.9702C171.545 12.9382 171.258 12.8903 170.81 12.8263C170.363 12.7518 169.883 12.7145 169.372 12.7145C168.179 12.7145 167.076 12.9648 166.064 13.4656C165.052 13.9556 164.205 14.6374 163.523 15.511C162.841 16.3739 162.405 17.3594 162.213 18.4673L159.656 34H155.885ZM189.02 9.45454L188.508 12.6506H175.788L176.299 9.45454H189.02ZM180.966 3.57386H184.737L180.838 26.9688C180.667 28.0341 180.694 28.8331 180.918 29.3658C181.152 29.8878 181.504 30.2393 181.972 30.4205C182.452 30.5909 182.968 30.6761 183.522 30.6761C183.938 30.6761 184.279 30.6548 184.545 30.6122C184.811 30.5589 185.025 30.5163 185.184 30.4844L185.44 33.8722C185.152 33.968 184.763 34.0639 184.273 34.1598C183.794 34.2663 183.203 34.3196 182.5 34.3196C181.434 34.3196 180.433 34.0906 179.495 33.6325C178.558 33.1744 177.839 32.4766 177.338 31.5391C176.837 30.6016 176.704 29.419 176.939 27.9915L180.966 3.57386ZM193.798 34.2557C192.988 34.2557 192.311 33.9787 191.768 33.4247C191.225 32.8601 190.942 32.1783 190.921 31.3793C190.911 30.5803 191.193 29.9144 191.768 29.3817C192.343 28.8384 193.02 28.5668 193.798 28.5668C194.586 28.5668 195.268 28.8437 195.843 29.3977C196.418 29.9517 196.695 30.6122 196.674 31.3793C196.663 31.9119 196.525 32.3967 196.259 32.8335C196.003 33.2702 195.657 33.6165 195.22 33.8722C194.794 34.1278 194.32 34.2557 193.798 34.2557Z" fill="#FAECEC"/>
</svg>
